<svg width="44" height="44" viewBox="0 0 44 44" fill="none" xmlns="http://www.w3.org/2000/svg">
<rect width="44" height="44" rx="10" fill="#FFBC00"/>
<path fill-rule="evenodd" clip-rule="evenodd" d="M26.1705 13.1153C25.0067 12.8838 23.8003 13.0026 22.7039 13.4567C21.6075 13.9109 20.6705 14.6799 20.0112 15.6666C19.3519 16.6533 19 17.8133 19 19V19.0028H19C18.9971 19.7661 19.1439 20.5226 19.432 21.2294C19.5459 21.5089 19.4812 21.8294 19.2678 22.0428L13.75 27.5607V30.25H16V28.75C16 28.3358 16.3358 28 16.75 28H18.25V26.5C18.25 26.0858 18.5858 25.75 19 25.75H20.9393L21.9572 24.7322L22.4875 25.2625L22.7706 24.568C23.4774 24.8561 24.2339 25.0029 24.9972 25L25 25C26.1867 25 27.3467 24.6481 28.3334 23.9888C29.3201 23.3295 30.0892 22.3925 30.5433 21.2961C30.9974 20.1997 31.1162 18.9933 30.8847 17.8295C30.6532 16.6656 30.0818 15.5965 29.2426 14.7574C28.4035 13.9182 27.3344 13.3468 26.1705 13.1153ZM22.679 26.1317L21.7803 27.0303C21.6397 27.171 21.4489 27.25 21.25 27.25H19.75V28.75C19.75 29.1642 19.4142 29.5 19 29.5H17.5V31C17.5 31.4142 17.1642 31.75 16.75 31.75H13C12.5858 31.75 12.25 31.4142 12.25 31V27.25C12.25 27.0511 12.329 26.8603 12.4697 26.7197L17.8683 21.321C17.6219 20.5727 17.4972 19.7886 17.5 18.9986C17.5003 17.5157 17.9401 16.0662 18.764 14.8332C19.5881 13.5999 20.7594 12.6386 22.1299 12.0709C23.5003 11.5032 25.0083 11.3547 26.4632 11.6441C27.918 11.9335 29.2544 12.6478 30.3033 13.6967C31.3522 14.7456 32.0665 16.082 32.3559 17.5368C32.6453 18.9917 32.4968 20.4997 31.9291 21.8701C31.3614 23.2406 30.4001 24.4119 29.1668 25.236C27.9338 26.0599 26.4843 26.4997 25.0014 26.5C25.0009 26.5 25.0005 26.5 25 26.5V25.75L25.0028 26.5C25.0023 26.5 25.0019 26.5 25.0014 26.5C24.2114 26.5028 23.4273 26.3781 22.679 26.1317Z" fill="white"/>
<path d="M27.9531 17.125C27.9531 17.7204 27.4704 18.2031 26.875 18.2031C26.2796 18.2031 25.7969 17.7204 25.7969 17.125C25.7969 16.5296 26.2796 16.0469 26.875 16.0469C27.4704 16.0469 27.9531 16.5296 27.9531 17.125Z" fill="white" stroke="white" stroke-width="0.09375"/>
</svg>
