<?xml version="1.0" encoding="UTF-8"?>
<svg version="1.1" viewBox="0 0 2048 952" width="3250" height="1512" xmlns="http://www.w3.org/2000/svg">
<path transform="translate(1644,199)" d="m0 0h131l19 3 16 5 19 10 11 9 8 7 11 14 8 14 6 15 4 18v15h-82l-3-12-6-8-8-5-3-1h-131l-10 5-5 6-4 10v15l4 11 7 7 11 4 133 1 20 4 16 6 15 9 10 8 13 13 10 15 7 15 5 17 2 15v20l-2 15-4 15-7 16-10 15-12 13-11 9-15 9-15 6-17 4-9 1h-133l-19-3-17-6-17-9-11-9-14-14-10-15-7-15-5-19-1-6v-15h81l5 15 6 7 10 5h131l9-4 7-8 3-7v-19l-3-8-5-6-9-5-4-1-134-1-20-4-15-6-16-9-13-11-7-7-11-15-9-19-4-13-2-12v-33l4-19 7-17 9-15 9-10 5-5 10-9 13-8 13-6 17-5z" fill="#0E4D9B"/>
<path transform="translate(690,199)" d="m0 0h92l29 56 12 23 57 110 4 6 12-24 10-19 13-25 10-19 14-27 10-19 14-27 10-19 8-15h92l-9 19-24 46-15 29-10 19-14 27-10 19-14 27-12 23-10 19-14 27-10 19-16 31-10 19-14 27-8 15h-7l-19-37-10-19-28-54-12-23-14-27-12-23-17-33-10-19-17-33-10-19-29-56-12-23z" fill="#0E4D9B"/>
<path transform="translate(353,118)" d="m0 0h9l5 6 11 26 3 2h49l5-5 11-26 4-3h8l23 6 7 3 3 4v9l-2 16v11l5 4 16 8 16 10 4 3h7l21-16 5-3 7 1 13 12 8 8 4 5v8l-16 21-3 5 1 6 11 17 12 22 3 2 13-1 16-2 7 1 4 5 7 24 1 11-5 5-40 17-3 4-6 16-10 19-12 17-12 14-16 16-2-1 6-15 5-20 2-17v-21l-3-22-6-20-7-16-9-16-10-13-9-10-7-7-16-12-15-9-16-7-20-6-17-3h-34l-22 4-21 7-28 13-24 13-27 18-13 10-13 11-10 9-13 13-9 11-10 13-3 3-31-13-4-4v-9l6-23 4-8 4-2 21 2 12 1 4-2 12-23 11-17v-6l-14-19-5-7 1-7 7-8 16-16 4-2 7 1 18 14 6 4h6l19-12 22-12 1-7-3-25 1-7 6-4z" fill="#ED1C24"/>
<path transform="translate(265,299)" d="m0 0 1 2-6 15-5 21-2 21v10l2 20 5 21 8 20 10 18 10 13 11 12 11 10 13 9 16 9 20 8 21 5 19 2h13l19-2 21-5 20-8 22-10 23-13 19-12 14-10 16-13 12-11 8-7 7-8 9-10 12-16 6 1 26 11 5 6-1 9-7 25-4 5-2 1-15-1-8-1h-13l-3 3-8 16-9 15-5 8 1 7 11 14 7 10v6l-8 10-12 12-7 5h-6l-19-14-7-5-7 1-19 12-16 8-5 4-1 4 3 25v7l-4 5-20 6-15 3-5-3-7-14-7-16-3-2h-48l-4 2-11 25-3 5-5 3-15-3-20-6-4-5 1-15 2-18-1-5-5-2-16-8-16-10-4-3h-6l-19 14-7 5h-6l-11-9-10-10-6-8v-6l14-19 5-7v-6l-10-15-10-18-3-6-2-2h-13l-16 2h-7l-5-4-5-16-4-16 1-6 4-4 31-13 11-5 8-20 7-14 10-15 11-14 14-15z" fill="#0E4D9B"/>
<path transform="translate(1432,200)" d="m0 0h73l1 1v365l-1 1h-82l-1-247-9 9-7 8-28 28-7 8-13 13-2-3-5-15-9-16-12-17-10-16-3-7 1-4 15-15 7-8 29-29 7-8 24-24 7-8 9-9 9-5z" fill="#0E4D9B"/>
<path transform="translate(1095,200)" d="m0 0h74l11 4 10 9 15 15 7 8 24 24 7 8 29 29 7 8 4 4-1 6-7 13-14 20-10 16-6 16-2 6-7-6-8-8-7-8-24-24-7-8-12-12-1 247h-82z" fill="#0E4D9B"/>
<path transform="translate(1299,306)" d="m0 0h2l6 15 8 14 13 18 9 15 5 14 1 5v18l-4 11-6 9-7 7-12 6-9 2h-10l-11-3-8-4-10-9-6-10-3-10v-16l3-12 8-16 7-11 10-14 9-16z" fill="#ED1C24"/>
<path transform="translate(331,699)" d="m0 0h19l16 24 13 20 8 12 1-56h18v89h-19l-8-11-12-19-14-21-3-5-1 56h-18z" fill="#0E4D9B"/>
<path transform="translate(1821,698)" d="m0 0h23l12 4 9 6 7 8 4 8 3 14v10l-2 12-6 12-6 7-10 6-8 3-6 1h-16l-12-3-8-4-9-8-6-10-3-13v-15l3-13 6-10 8-8 10-5zm5 15-10 5-6 7-3 10v17l3 9 8 9 11 4h8l9-3 8-7 4-9 1-6v-12l-2-9-5-8-5-4-7-3z" fill="#0F4D9B"/>
<path transform="translate(799,699)" d="m0 0h19l1 34 36 1v-35h20v88l-1 1h-18l-1-1v-38h-37v39h-19z" fill="#12509C"/>
<path transform="translate(1202,698)" d="m0 0h22l10 3 6 4 6 7 3 8v5h-19l-5-8-6-3h-13l-7 3-1 1v6l3 3 16 5 18 5 9 6 5 6 3 9v7l-4 11-7 7-8 4-10 2h-18l-12-3-9-6-6-8-3-9v-4l18-2 5 10 5 4 7 2h8l9-3 4-4v-8l-6-4-26-7-12-6-6-7-3-8v-7l4-10 8-7 7-3z" fill="#0F4E9B"/>
<path transform="translate(944,699)" d="m0 0h70v15h-51v20h47v15h-47v24h53v14l-1 1h-71z" fill="#0E4D9B"/>
<path transform="translate(1719,699)" d="m0 0h21l23 54 14 33v2h-21l-7-17v-3h-39l-3 10-4 10h-20l1-5 15-37 16-38zm9 22-11 29v2h25l-10-26-2-5z" fill="#114F9C"/>
<path transform="translate(1397,699)" d="m0 0h20l6 12 23 54 9 21v2h-21l-8-19-38-1-3 10-4 10h-20l1-6 18-43 16-39zm9 22-11 28v3h24l-1-5-10-26z" fill="#114F9C"/>
<path transform="translate(595,699)" d="m0 0h21l22 51 15 35v3h-20l-5-10-3-10-38 1-7 18-1 1h-20l3-10 16-38zm10 22-5 11-7 20h25l-6-17-6-14z" fill="#114F9C"/>
<path transform="translate(1271,699)" d="m0 0h19l1 60 2 7 5 5 7 2h8l7-2 4-4 2-6 1-62h19v64l-2 9-6 9-8 5-11 3h-19l-12-3-9-6-6-9-2-11z" fill="#0E4D9B"/>
<path transform="translate(1038,699)" d="m0 0h19l1 62 4 8 6 3 4 1h8l7-2 3-1 3-10 1-61h19v63l-3 12-5 7-8 5-12 3h-18l-10-2-9-5-6-7-3-7-1-6z" fill="#0E4D9B"/>
<path transform="translate(500,698)" d="m0 0h21l12 4 9 7 5 8 2 6-9 3-10 2-6-10-8-4h-12l-8 4-3 1-2 4-3 9v22l4 11 7 6 7 2h7l8-3 6-7 3-8 9 2 10 3-1 5-5 10-7 7-10 5-8 2h-16l-13-4-11-8-7-10-4-13v-20l3-11 4-8 7-8 10-6z" fill="#0F4E9B"/>
<path transform="translate(1623,698)" d="m0 0h21l12 4 8 6 6 9 1 7-18 4-6-10-8-4h-12l-10 5-4 6-2 7v22l4 11 7 6 7 2h7l8-3 6-7 3-8 9 2 10 3-3 10-7 9-8 6-13 4h-16l-13-4-11-8-7-10-4-13v-20l3-11 4-8 7-8 10-6z" fill="#104E9B"/>
<path transform="translate(459,245)" d="m0 0 14 7 1 1v220l-13 7h-2z" fill="#0E4D9B"/>
<path transform="translate(413,234)" d="m0 0h9l3 1v255l-1 1-10 1-1-1z" fill="#0E4D9B"/>
<path transform="translate(378,236)" d="m0 0h1v253l-10-2-1-1v-247z" fill="#0E4D9B"/>
<path transform="translate(658,699)" d="m0 0h22l7 10 12 19 2 5 4-4 18-30h23l-7 11-27 40-1 38h-19l-1-39-10-14-23-35z" fill="#0F4D9B"/>
<path transform="translate(199,699)" d="m0 0h75v15h-27v73l-1 1h-18l-1-1v-73h-28z" fill="#14519D"/>
<path transform="translate(1462,699)" d="m0 0h75v15h-28v74h-19v-74h-28z" fill="#0E4D9B"/>
<path transform="translate(328,259)" d="m0 0h2v208l-5-3-7-6v-191z" fill="#0E4D9B"/>
<path transform="translate(389,234)" d="m0 0 2 1v255l-4 1-4-1v-255z" fill="#2B63A7"/>
<path transform="translate(402,233)" d="m0 0h7l1 1v145l-1 113h-7z" fill="#0E4D9B"/>
<path transform="translate(504,280)" d="m0 0h2l10 14v137l-10 14h-2z" fill="#235DA4"/>
<path transform="translate(347,247)" d="m0 0h2v231l-5-1-3-2v-225z" fill="#0E4D9B"/>
<path transform="translate(900,699)" d="m0 0h19v89h-19z" fill="#0E4D9B"/>
<path transform="translate(290,699)" d="m0 0h19v89h-19z" fill="#0E4D9B"/>
<path transform="translate(485,261)" d="m0 0 6 4 2 2v191l-6 6h-2z" fill="#0E4D9B"/>
<path transform="translate(428,236)" d="m0 0h4v253l-3 1-1-1z" fill="#0E4D9B"/>
<path transform="translate(444,239)" d="m0 0 4 2v243l-4 2z" fill="#4979B3"/>
<path transform="translate(361,241)" d="m0 0h3v244l-4-1v-242z" fill="#0E4D9B"/>
<path transform="translate(451,242)" d="m0 0 4 1v239l-4 1z" fill="#0E4D9B"/>
<path transform="translate(336,253)" d="m0 0h1v219l-4-2v-214z" fill="#0E4D9B"/>
<path transform="translate(302,285)" d="m0 0h1v156l-4-5v-147z" fill="#0E4D9B"/>
<path transform="translate(527,320)" d="m0 0 2 2 5 21 1 9v22l-3 18-4 13h-1z" fill="#114F9C"/>
<path transform="translate(291,302)" d="m0 0h1v121l-3-3-1-3v-109z" fill="#0F4E9B"/>
<path transform="translate(520,303)" d="m0 0 3 4 1 3v105l-3 7h-1z" fill="#4676B2"/>
<path transform="translate(283,320)" d="m0 0h1v85l-2-3-4-16-2-21 1-20 4-19z" fill="#13509D"/>
<path transform="translate(971,795)" d="m0 0h19v16l-1 1h-17l-1-1z" fill="#0E4D9B"/>
<path transform="translate(597,795)" d="m0 0h18v17h-18z" fill="#0E4D9B"/>
<path transform="translate(599,683)" d="m0 0h13l12 7v1h-13l-4-3-5 2-2 1h-13l5-4z" fill="#104F9C"/>
<path transform="translate(974,683)" d="m0 0h13l12 7v1h-13l-5-3-5 2-1 1h-13l3-3z" fill="#0F4E9B"/>
<path transform="translate(1401,688)" d="m0 0h13l12 7v1h-13l-5-3-5 2-1 1h-13l5-4z" fill="#104F9C"/>
<path transform="translate(1407,677)" d="m0 0h20l-4 3-10 6h-13l4-6z" fill="#12509D"/>
</svg>
